<svg width="12" height="16" viewBox="0 0 12 16" fill="none" xmlns="http://www.w3.org/2000/svg">
<path d="M8.38275 2.88264C7.5705 3.69565 6.02775 3.4714 6.02775 3.4714C6.02775 3.4714 5.80425 1.92939 6.61725 1.11638C7.4295 0.304128 8.97225 0.528379 8.97225 0.528379C8.97225 0.528379 9.19575 2.06964 8.38275 2.88264ZM0 9.54493C0 12.0057 1.647 14.8325 3.31425 15.4302C3.89175 15.6372 4.4895 15.3515 4.986 14.9952C5.3625 14.7252 5.8185 14.468 6.1875 14.468C6.555 14.468 7.0125 14.7252 7.38825 14.9952C7.88475 15.3515 8.4825 15.6372 9.06075 15.4302C10.245 15.0057 11.4195 13.4555 12 11.7102C10.875 11.3877 10.0545 10.3707 10.0545 9.16543C10.0545 8.06142 10.7437 7.11492 11.724 6.71667C11.0925 5.59466 10.0605 4.99991 8.89425 4.99991C8.29125 4.99991 7.73625 5.24291 7.28925 5.53466C6.57375 5.99966 5.8005 5.99966 5.08575 5.53466C4.638 5.24291 4.08375 4.99991 3.48075 4.99991C1.55775 4.99991 0 6.61617 0 9.54493Z" fill="#F5F5F5"/>
</svg>
