<svg width="24" height="25" viewBox="0 0 24 25" fill="none" xmlns="http://www.w3.org/2000/svg">
<rect x="0.5" y="1" width="23" height="23" rx="11.5" stroke="#F5F5F5"/>
<path d="M14.707 18.864C14.8945 18.6764 14.9998 18.4221 14.9998 18.157C14.9998 17.8918 14.8945 17.6375 14.707 17.45L9.75705 12.5L14.707 7.54995C14.8892 7.36135 14.99 7.10875 14.9877 6.84655C14.9854 6.58435 14.8803 6.33354 14.6949 6.14813C14.5095 5.96272 14.2586 5.85756 13.9964 5.85528C13.7343 5.853 13.4817 5.95379 13.293 6.13595L7.63605 11.793C7.44858 11.9805 7.34326 12.2348 7.34326 12.5C7.34326 12.7651 7.44858 13.0194 7.63605 13.207L13.293 18.864C13.4806 19.0514 13.7349 19.1567 14 19.1567C14.2652 19.1567 14.5195 19.0514 14.707 18.864Z" fill="#F5F5F5"/>
</svg>
