<svg width="24" height="25" viewBox="0 0 24 25" fill="none" xmlns="http://www.w3.org/2000/svg">
<rect x="-0.5" y="0.5" width="23" height="23" rx="11.5" transform="matrix(-1 0 0 1 23 0.5)" stroke="#F5F5F5"/>
<path d="M9.29295 18.864C9.10548 18.6764 9.00017 18.4221 9.00017 18.157C9.00017 17.8918 9.10548 17.6375 9.29295 17.45L14.243 12.5L9.29295 7.54995C9.11079 7.36135 9.01 7.10875 9.01228 6.84655C9.01456 6.58435 9.11972 6.33354 9.30513 6.14813C9.49054 5.96272 9.74135 5.85756 10.0036 5.85528C10.2657 5.853 10.5183 5.95379 10.707 6.13595L16.364 11.793C16.5514 11.9805 16.6567 12.2348 16.6567 12.5C16.6567 12.7651 16.5514 13.0194 16.364 13.207L10.707 18.864C10.5194 19.0514 10.2651 19.1567 9.99995 19.1567C9.73479 19.1567 9.48048 19.0514 9.29295 18.864Z" fill="#F5F5F5"/>
</svg>
