<svg width="24" height="24" viewBox="0 0 24 24" fill="none" xmlns="http://www.w3.org/2000/svg">
<path d="M10.6875 6.31231C10.4874 6.11234 10.2162 6 9.93333 6C9.65049 6 9.37923 6.11234 9.1792 6.31231L4.3792 11.1123C4.17923 11.3123 4.06689 11.5836 4.06689 11.8664C4.06689 12.1493 4.17923 12.4205 4.3792 12.6206L9.1792 17.4206C9.38037 17.6149 9.64982 17.7224 9.92949 17.72C10.2092 17.7175 10.4767 17.6053 10.6745 17.4076C10.8722 17.2098 10.9844 16.9423 10.9869 16.6626C10.9893 16.3829 10.8818 16.1135 10.6875 15.9123L7.8 12.9331H17.9333C18.2162 12.9331 18.4875 12.8207 18.6876 12.6207C18.8876 12.4206 19 12.1493 19 11.8664C19 11.5835 18.8876 11.3122 18.6876 11.1122C18.4875 10.9122 18.2162 10.7998 17.9333 10.7998H7.8L10.6875 7.82057C10.8874 7.62054 10.9998 7.34928 10.9998 7.06644C10.9998 6.7836 10.8874 6.51234 10.6875 6.31231Z" fill="#F5F5F5"/>
</svg>
