<svg width="135" height="31" viewBox="0 0 135 31" fill="none" xmlns="http://www.w3.org/2000/svg">
<path d="M12.7739 2C15.3339 2 17.2406 2.6 18.4939 3.8C19.7472 5 20.3739 6.77333 20.3739 9.12C20.3739 10.3733 20.0672 11.48 19.4539 12.44C18.8406 13.3733 17.9339 14.1067 16.7339 14.64C15.5339 15.1467 14.0539 15.4 12.2939 15.4L12.4539 13.6C13.2806 13.6 14.2272 13.72 15.2939 13.96C16.3606 14.1733 17.3872 14.5733 18.3739 15.16C19.3872 15.72 20.2139 16.52 20.8539 17.56C21.5206 18.5733 21.8539 19.88 21.8539 21.48C21.8539 23.24 21.5606 24.68 20.9739 25.8C20.4139 26.92 19.6672 27.7867 18.7339 28.4C17.8006 29.0133 16.8006 29.44 15.7339 29.68C14.6672 29.8933 13.6406 30 12.6539 30H2.69391C2.00057 30 1.41391 29.7733 0.933907 29.32C0.480573 28.84 0.253906 28.2533 0.253906 27.56V4.44C0.253906 3.74667 0.480573 3.17333 0.933907 2.72C1.41391 2.24 2.00057 2 2.69391 2H12.7739ZM12.0539 6.72H4.93391L5.45391 6.08V13.32L4.97391 12.96H12.1739C12.9472 12.96 13.6406 12.7067 14.2539 12.2C14.8672 11.6933 15.1739 10.96 15.1739 10C15.1739 8.85333 14.8806 8.02667 14.2939 7.52C13.7339 6.98667 12.9872 6.72 12.0539 6.72ZM12.3739 17.68H5.09391L5.45391 17.36V25.8L5.05391 25.4H12.6539C13.8806 25.4 14.8539 25.08 15.5739 24.44C16.2939 23.7733 16.6539 22.7867 16.6539 21.48C16.6539 20.28 16.4139 19.4133 15.9339 18.88C15.4539 18.3467 14.8806 18.0133 14.2139 17.88C13.5472 17.7467 12.9339 17.68 12.3739 17.68ZM31.1477 27.56C31.1477 28.2533 30.9077 28.84 30.4277 29.32C29.9743 29.7733 29.401 30 28.7077 30C28.041 30 27.481 29.7733 27.0277 29.32C26.5743 28.84 26.3477 28.2533 26.3477 27.56V2.84C26.3477 2.14667 26.5743 1.57333 27.0277 1.12C27.5077 0.639999 28.0943 0.4 28.7877 0.4C29.481 0.4 30.041 0.639999 30.4677 1.12C30.921 1.57333 31.1477 2.14667 31.1477 2.84V27.56ZM52.4136 8.6C53.1069 8.6 53.6803 8.84 54.1336 9.32C54.5869 9.77333 54.8136 10.3467 54.8136 11.04V21.2C54.8136 24.0267 54.0269 26.2667 52.4536 27.92C50.8803 29.5733 48.6136 30.4 45.6536 30.4C42.6936 30.4 40.4269 29.5733 38.8536 27.92C37.3069 26.2667 36.5336 24.0267 36.5336 21.2V11.04C36.5336 10.3467 36.7603 9.77333 37.2136 9.32C37.6669 8.84 38.2403 8.6 38.9336 8.6C39.6269 8.6 40.2003 8.84 40.6536 9.32C41.1069 9.77333 41.3336 10.3467 41.3336 11.04V21.2C41.3336 22.8267 41.6936 24.04 42.4136 24.84C43.1336 25.6133 44.2136 26 45.6536 26C47.1203 26 48.2136 25.6133 48.9336 24.84C49.6536 24.04 50.0136 22.8267 50.0136 21.2V11.04C50.0136 10.3467 50.2403 9.77333 50.6936 9.32C51.1469 8.84 51.7203 8.6 52.4136 8.6ZM70.0902 30.4C67.8235 30.4 65.8502 29.9333 64.1702 29C62.5168 28.04 61.2368 26.7467 60.3302 25.12C59.4502 23.4933 59.0102 21.6533 59.0102 19.6C59.0102 17.2 59.4902 15.16 60.4502 13.48C61.4368 11.7733 62.7168 10.4667 64.2902 9.56C65.8635 8.65333 67.5302 8.2 69.2902 8.2C70.6502 8.2 71.9302 8.48 73.1302 9.04C74.3568 9.6 75.4368 10.3733 76.3702 11.36C77.3035 12.32 78.0368 13.44 78.5702 14.72C79.1302 16 79.4102 17.36 79.4102 18.8C79.3835 19.44 79.1302 19.96 78.6502 20.36C78.1702 20.76 77.6102 20.96 76.9702 20.96H61.6902L60.4902 16.96H75.1702L74.2902 17.76V16.68C74.2368 15.9067 73.9568 15.2133 73.4502 14.6C72.9702 13.9867 72.3568 13.5067 71.6102 13.16C70.8902 12.7867 70.1168 12.6 69.2902 12.6C68.4902 12.6 67.7435 12.7067 67.0502 12.92C66.3568 13.1333 65.7568 13.4933 65.2502 14C64.7435 14.5067 64.3435 15.1867 64.0502 16.04C63.7568 16.8933 63.6102 17.9733 63.6102 19.28C63.6102 20.72 63.9035 21.9467 64.4902 22.96C65.1035 23.9467 65.8768 24.7067 66.8102 25.24C67.7702 25.7467 68.7835 26 69.8502 26C70.8368 26 71.6235 25.92 72.2102 25.76C72.7968 25.6 73.2635 25.4133 73.6102 25.2C73.9835 24.96 74.3168 24.76 74.6102 24.6C75.0902 24.36 75.5435 24.24 75.9702 24.24C76.5568 24.24 77.0368 24.44 77.4102 24.84C77.8102 25.24 78.0102 25.7067 78.0102 26.24C78.0102 26.96 77.6368 27.6133 76.8902 28.2C76.1968 28.7867 75.2235 29.3067 73.9702 29.76C72.7168 30.1867 71.4235 30.4 70.0902 30.4Z" fill="#F5F5F5"/>
<path d="M86.5239 30C85.7772 30 85.1639 29.7733 84.6839 29.32C84.2306 28.84 84.0039 28.2533 84.0039 27.56V4.44C84.0039 3.74667 84.2306 3.17333 84.6839 2.72C85.1639 2.24 85.7506 2 86.4439 2H99.4439C100.137 2 100.711 2.22667 101.164 2.68C101.644 3.10666 101.884 3.66666 101.884 4.36C101.884 4.94667 101.644 5.46667 101.164 5.92C100.711 6.37333 100.137 6.6 99.4439 6.6H88.6439L89.0039 6.12V14.16L88.7239 13.64H97.6439C98.3372 13.64 98.9106 13.8667 99.3639 14.32C99.8439 14.7467 100.084 15.3067 100.084 16C100.084 16.5867 99.8439 17.1067 99.3639 17.56C98.9106 18.0133 98.3372 18.24 97.6439 18.24H88.6439L89.0039 17.88V27.56C89.0039 28.2533 88.7506 28.84 88.2439 29.32C87.7639 29.7733 87.1906 30 86.5239 30ZM110.585 27.56C110.585 28.2533 110.358 28.84 109.905 29.32C109.452 29.7733 108.878 30 108.185 30C107.492 30 106.918 29.7733 106.465 29.32C106.012 28.84 105.785 28.2533 105.785 27.56V11.04C105.785 10.3467 106.012 9.77333 106.465 9.32C106.918 8.84 107.492 8.6 108.185 8.6C108.878 8.6 109.452 8.84 109.905 9.32C110.358 9.77333 110.585 10.3467 110.585 11.04V27.56ZM108.145 6C107.238 6 106.598 5.85333 106.225 5.56C105.852 5.26667 105.665 4.74667 105.665 4V3.24C105.665 2.46667 105.865 1.94667 106.265 1.68C106.692 1.38667 107.332 1.24 108.185 1.24C109.118 1.24 109.772 1.38667 110.145 1.68C110.518 1.97333 110.705 2.49333 110.705 3.24V4C110.705 4.77333 110.505 5.30667 110.105 5.6C109.705 5.86667 109.052 6 108.145 6ZM126.958 8.2C128.931 8.2 130.425 8.61333 131.438 9.44C132.478 10.2667 133.185 11.3733 133.558 12.76C133.958 14.12 134.158 15.64 134.158 17.32V27.56C134.158 28.2533 133.931 28.84 133.478 29.32C133.025 29.7733 132.451 30 131.758 30C131.065 30 130.491 29.7733 130.038 29.32C129.585 28.84 129.358 28.2533 129.358 27.56V17.32C129.358 16.44 129.238 15.6533 128.998 14.96C128.785 14.24 128.385 13.6667 127.798 13.24C127.211 12.8133 126.371 12.6 125.278 12.6C124.211 12.6 123.305 12.8133 122.558 13.24C121.838 13.6667 121.278 14.24 120.878 14.96C120.505 15.6533 120.318 16.44 120.318 17.32V27.56C120.318 28.2533 120.091 28.84 119.638 29.32C119.185 29.7733 118.611 30 117.918 30C117.225 30 116.651 29.7733 116.198 29.32C115.745 28.84 115.518 28.2533 115.518 27.56V11.04C115.518 10.3467 115.745 9.77333 116.198 9.32C116.651 8.84 117.225 8.6 117.918 8.6C118.611 8.6 119.185 8.84 119.638 9.32C120.091 9.77333 120.318 10.3467 120.318 11.04V12.76L119.718 12.64C119.958 12.1867 120.305 11.7067 120.758 11.2C121.211 10.6667 121.745 10.1733 122.358 9.72C122.971 9.26666 123.665 8.90666 124.438 8.64C125.211 8.34667 126.051 8.2 126.958 8.2Z" fill="#CBFE03"/>
</svg>
