<svg width="21" height="20" viewBox="0 0 21 20" fill="none" xmlns="http://www.w3.org/2000/svg">
<path fill-rule="evenodd" clip-rule="evenodd" d="M10.5 20C16.0228 20 20.5 15.5228 20.5 10C20.5 4.47715 16.0228 0 10.5 0C4.97715 0 0.5 4.47715 0.5 10C0.5 15.5228 4.97715 20 10.5 20ZM10.6955 13.796L10.6992 13.7954C10.7021 13.7958 10.704 13.7978 10.7049 13.8014L10.7105 13.9437L10.7092 13.9494L10.7052 13.9547L10.6705 13.9794L10.6665 13.9807L10.6615 13.9794L10.6269 13.9547L10.6235 13.9504L10.6219 13.9437L10.6275 13.801L10.6289 13.7977C10.6306 13.7955 10.6333 13.7949 10.6369 13.796L10.6605 13.8077L10.6652 13.809L10.6719 13.8077L10.6955 13.796ZM10.7832 13.7584L10.7875 13.7577C10.7909 13.7586 10.7931 13.761 10.7942 13.765L10.8055 13.9697L10.8042 13.9744C10.802 13.9773 10.7987 13.9781 10.7945 13.977L10.7275 13.946L10.7249 13.9437L10.7232 13.9397L10.7172 13.7964L10.7182 13.7927L10.7215 13.7894L10.7832 13.7584ZM10.5467 13.7575C10.5475 13.7576 10.5484 13.7579 10.5492 13.7584L10.6105 13.789L10.6139 13.7924L10.6149 13.7964L10.6092 13.9397L10.6079 13.9434L10.6045 13.946L10.5375 13.977L10.5325 13.9777C10.529 13.9764 10.5271 13.9737 10.5269 13.9697L10.5382 13.765L10.5402 13.7604C10.5411 13.7589 10.5426 13.7579 10.5443 13.7576C10.5451 13.7574 10.5459 13.7574 10.5467 13.7575ZM13.6833 7.81323C13.777 7.90699 13.8297 8.03414 13.8297 8.16673C13.8297 8.29931 13.777 8.42646 13.6833 8.52023L9.93564 12.2679C9.88612 12.3174 9.82732 12.3567 9.7626 12.3835C9.69789 12.4103 9.62853 12.4241 9.55848 12.4241C9.48843 12.4241 9.41907 12.4103 9.35435 12.3835C9.28964 12.3567 9.23084 12.3174 9.18131 12.2679L7.31931 10.4062C7.27156 10.3601 7.23346 10.3049 7.20726 10.2439C7.18106 10.1829 7.16726 10.1173 7.16669 10.0509C7.16611 9.98454 7.17876 9.9187 7.2039 9.85725C7.22904 9.7958 7.26617 9.73997 7.31311 9.69303C7.36006 9.64608 7.41589 9.60896 7.47733 9.58382C7.53878 9.55867 7.60462 9.54602 7.67101 9.5466C7.7374 9.54718 7.80301 9.56097 7.86401 9.58718C7.92501 9.61338 7.98019 9.65147 8.02631 9.69923L9.55831 11.2312L12.976 7.81323C13.0224 7.76676 13.0775 7.7299 13.1382 7.70476C13.1989 7.67961 13.264 7.66667 13.3296 7.66667C13.3953 7.66667 13.4604 7.67961 13.5211 7.70476C13.5817 7.7299 13.6369 7.76676 13.6833 7.81323ZM15.8333 10C15.8333 12.9455 13.4455 15.3333 10.5 15.3333C7.55448 15.3333 5.16667 12.9455 5.16667 10C5.16667 7.05448 7.55448 4.66667 10.5 4.66667C13.4455 4.66667 15.8333 7.05448 15.8333 10ZM17.1667 10C17.1667 13.6819 14.1819 16.6667 10.5 16.6667C6.8181 16.6667 3.83333 13.6819 3.83333 10C3.83333 6.3181 6.8181 3.33333 10.5 3.33333C14.1819 3.33333 17.1667 6.3181 17.1667 10Z" fill="#15215F"/>
</svg>
