<svg viewBox="0 0 60 60" fill="none" xmlns="http://www.w3.org/2000/svg">
<path fill-rule="evenodd" clip-rule="evenodd" d="M30 60C46.5685 60 60 46.5685 60 30C60 13.4315 46.5685 0 30 0C13.4315 0 0 13.4315 0 30C0 46.5685 13.4315 60 30 60ZM30.5858 41.3883L30.5968 41.3863C30.6055 41.3877 30.6112 41.3937 30.6138 41.4043L30.6308 41.8313L30.6268 41.8483L30.6148 41.8643L30.5108 41.9383L30.4988 41.9423L30.4838 41.9383L30.3798 41.8643L30.3698 41.8513L30.3648 41.8313L30.3818 41.4033L30.3858 41.3933C30.3912 41.3867 30.3992 41.385 30.4098 41.3883L30.4808 41.4233L30.4948 41.4273L30.5148 41.4233L30.5858 41.3883ZM30.8488 41.2753L30.8618 41.2733C30.8718 41.276 30.8785 41.2833 30.8818 41.2953L30.9158 41.9093L30.9118 41.9233C30.9052 41.932 30.8955 41.9347 30.8828 41.9313L30.6818 41.8383L30.6738 41.8313L30.6688 41.8193L30.6508 41.3893L30.6538 41.3783L30.6638 41.3683L30.8488 41.2753ZM30.1321 41.2729C30.1372 41.2718 30.1424 41.2727 30.1468 41.2753L30.3308 41.3673L30.3408 41.3773L30.3438 41.3893L30.3268 41.8193L30.3228 41.8303L30.3128 41.8383L30.1118 41.9313L30.0968 41.9333C30.0862 41.9293 30.0805 41.9213 30.0798 41.9093L30.1138 41.2953L30.1198 41.2813C30.1213 41.2792 30.1231 41.2773 30.1253 41.2759C30.1273 41.2745 30.1297 41.2735 30.1321 41.2729ZM39.5499 23.4397C39.8311 23.721 39.9891 24.1024 39.9891 24.5002C39.9891 24.8979 39.8311 25.2794 39.5499 25.5607L28.3069 36.8037C28.1584 36.9523 27.982 37.0702 27.7878 37.1506C27.5937 37.231 27.3856 37.2724 27.1754 37.2724C26.9653 37.2724 26.7572 37.231 26.5631 37.1506C26.3689 37.0702 26.1925 36.9523 26.0439 36.8037L20.4579 31.2187C20.3147 31.0803 20.2004 30.9148 20.1218 30.7318C20.0432 30.5488 20.0018 30.3519 20.0001 30.1528C19.9983 29.9536 20.0363 29.7561 20.1117 29.5717C20.1871 29.3874 20.2985 29.2199 20.4393 29.0791C20.5802 28.9382 20.7477 28.8269 20.932 28.7514C21.1163 28.676 21.3139 28.6381 21.513 28.6398C21.7122 28.6415 21.909 28.6829 22.092 28.7615C22.275 28.8401 22.4406 28.9544 22.5789 29.0977L27.1749 33.6937L37.4279 23.4397C37.5672 23.3003 37.7326 23.1897 37.9147 23.1143C38.0967 23.0388 38.2919 23 38.4889 23C38.686 23 38.8811 23.0388 39.0632 23.1143C39.2452 23.1897 39.4106 23.3003 39.5499 23.4397ZM46 30C46 38.8366 38.8366 46 30 46C21.1634 46 14 38.8366 14 30C14 21.1634 21.1634 14 30 14C38.8366 14 46 21.1634 46 30ZM50 30C50 41.0457 41.0457 50 30 50C18.9543 50 10 41.0457 10 30C10 18.9543 18.9543 10 30 10C41.0457 10 50 18.9543 50 30Z" fill="#F5F5F5"/>
</svg>
