<svg width="21" height="20" viewBox="0 0 21 20" fill="none" xmlns="http://www.w3.org/2000/svg">
<path fill-rule="evenodd" clip-rule="evenodd" d="M10.5 20C16.0228 20 20.5 15.5228 20.5 10C20.5 4.47715 16.0228 0 10.5 0C4.97715 0 0.5 4.47715 0.5 10C0.5 15.5228 4.97715 20 10.5 20ZM4.37456 12.6313C4.72395 13.4446 5.23183 14.1803 5.86857 14.7953C7.12592 16.0096 8.80993 16.6816 10.5579 16.6664C12.3059 16.6512 13.978 15.9501 15.214 14.714C16.4501 13.478 17.1512 11.8059 17.1664 10.0579C17.1816 8.30995 16.5096 6.62594 15.2952 5.36859C14.6803 4.73185 13.9446 4.22397 13.1313 3.87458C12.3179 3.52519 11.4431 3.34128 10.5579 3.33359C9.67271 3.32589 8.79485 3.49457 7.97554 3.82978C7.15623 4.16498 6.41189 4.66 5.78593 5.28595C5.15998 5.91191 4.66496 6.65625 4.32976 7.47556C3.99455 8.29487 3.82587 9.17273 3.83356 10.0579C3.84126 10.9431 4.02517 11.8179 4.37456 12.6313ZM15.9182 10.0819C15.9182 11.4972 15.356 12.8545 14.3552 13.8553C13.3545 14.856 11.9972 15.4182 10.5819 15.4182C9.16663 15.4182 7.80932 14.856 6.80857 13.8553C5.80782 12.8545 5.2456 11.4972 5.2456 10.0819C5.2456 8.66665 5.80782 7.30934 6.80857 6.30859C7.80932 5.30784 9.16663 4.74562 10.5819 4.74562C11.9972 4.74562 13.3545 5.30784 14.3552 6.30859C15.356 7.30934 15.9182 8.66665 15.9182 10.0819ZM11.2486 6.74859H9.91523V10.7486H11.2486V6.74859ZM11.2486 12.0819H9.91523V13.4153H11.2486V12.0819Z" fill="#922020"/>
</svg>
