<svg viewBox="0 0 60 60" fill="none" xmlns="http://www.w3.org/2000/svg">
<path fill-rule="evenodd" clip-rule="evenodd" d="M30 60C46.5685 60 60 46.5685 60 30C60 13.4315 46.5685 0 30 0C13.4315 0 0 13.4315 0 30C0 46.5685 13.4315 60 30 60ZM11.6237 37.8939C12.6719 40.3339 14.1956 42.5408 16.1058 44.3858C19.8778 48.0289 24.9299 50.0448 30.1738 49.9992C35.4177 49.9537 40.434 47.8503 44.1421 44.1421C47.8503 40.434 49.9537 35.4177 49.9992 30.1738C50.0448 24.9299 48.0289 19.8778 44.3858 16.1058C42.5408 14.1956 40.3339 12.6719 37.8939 11.6237C35.4538 10.5756 32.8294 10.0238 30.1738 10.0008C27.5182 9.97768 24.8846 10.4837 22.4267 11.4893C19.9688 12.4949 17.7357 13.98 15.8579 15.8579C13.98 17.7357 12.4949 19.9688 11.4893 22.4267C10.4837 24.8846 9.97768 27.5182 10.0008 30.1738C10.0238 32.8294 10.5756 35.4538 11.6237 37.8939ZM46.2547 30.2458C46.2547 34.4916 44.568 38.5635 41.5658 41.5658C38.5635 44.568 34.4916 46.2547 30.2458 46.2547C25.9999 46.2547 21.928 44.568 18.9258 41.5658C15.9235 38.5635 14.2369 34.4916 14.2369 30.2458C14.2369 25.9999 15.9235 21.928 18.9258 18.9258C21.928 15.9235 25.9999 14.2369 30.2458 14.2369C34.4916 14.2369 38.5635 15.9235 41.5658 18.9258C44.568 21.928 46.2547 25.9999 46.2547 30.2458ZM32.2458 20.2458H28.2458V32.2458H32.2458V20.2458ZM32.2458 36.2458H28.2458V40.2458H32.2458V36.2458Z" fill="#F5F5F5"/>
</svg>
