<svg width="24" height="24" viewBox="0 0 24 24" fill="none" xmlns="http://www.w3.org/2000/svg">
<path fill-rule="evenodd" clip-rule="evenodd" d="M15 3.00098C15.1313 3.00098 15.2614 3.02684 15.3827 3.0771C15.504 3.12735 15.6142 3.20101 15.7071 3.29387C15.8 3.38673 15.8736 3.49697 15.9239 3.61829C15.9741 3.73962 16 3.86965 16 4.00098C16 4.1323 15.9741 4.26233 15.9239 4.38366C15.8736 4.50499 15.8 4.61523 15.7071 4.70808C15.6142 4.80094 15.504 4.8746 15.3827 4.92486C15.2614 4.97511 15.1313 5.00098 15 5.00098H6V18.001C6 18.2662 6.10536 18.5205 6.29289 18.7081C6.48043 18.8956 6.73478 19.001 7 19.001H15C15.2652 19.001 15.5196 19.1063 15.7071 19.2939C15.8946 19.4814 16 19.7358 16 20.001C16 20.2662 15.8946 20.5205 15.7071 20.7081C15.5196 20.8956 15.2652 21.001 15 21.001H7C6.20435 21.001 5.44129 20.6849 4.87868 20.1223C4.31607 19.5597 4 18.7966 4 18.001V4.00098C4 3.73576 4.10536 3.48141 4.29289 3.29387C4.48043 3.10633 4.73478 3.00098 5 3.00098H15ZM16.707 8.29398C16.5672 8.15423 16.3891 8.05904 16.1953 8.02044C16.0014 7.98184 15.8005 8.00156 15.6178 8.07711C15.4351 8.15265 15.279 8.28064 15.169 8.44489C15.0591 8.60915 15.0002 8.80231 15 8.99998V11H9C8.73478 11 8.48043 11.1053 8.29289 11.2929C8.10536 11.4804 8 11.7348 8 12C8 12.2652 8.10536 12.5195 8.29289 12.7071C8.48043 12.8946 8.73478 13 9 13H15V15C15 15.1977 15.0587 15.391 15.1686 15.5554C15.2785 15.7198 15.4346 15.848 15.6173 15.9237C15.8 15.9993 16.0011 16.0191 16.195 15.9806C16.389 15.942 16.5671 15.8468 16.707 15.707L19.707 12.707C19.8945 12.5194 19.9998 12.2651 19.9998 12C19.9998 11.7348 19.8945 11.4805 19.707 11.293L16.707 8.29398Z" fill="#FD4A4A"/>
</svg>
