<svg width="16" height="16" viewBox="0 0 16 16" fill="none" xmlns="http://www.w3.org/2000/svg">
<path d="M9.992 7.952C9.9795 7.43131 9.76438 6.93604 9.39237 6.5715C9.02037 6.20697 8.52083 6.00193 8 6L9.992 7.952Z" fill="#CBFE03"/>
<path d="M6.56 4.71998C7.01201 4.5128 7.50279 4.40374 8 4.39998C8.95478 4.39998 9.87045 4.77926 10.5456 5.45439C11.2207 6.12952 11.6 7.0452 11.6 7.99998C11.5998 8.42408 11.5211 8.84448 11.368 9.23998L13.6 11.312C14.5965 10.3646 15.4101 9.24193 16 7.99998C16 7.99998 13.6 2.39998 8 2.39998C6.89688 2.39419 5.80545 2.62612 4.8 3.07998L6.56 4.71998ZM1.6 1.59998L0.8 2.39998L2.84 4.31998C1.64465 5.33287 0.676844 6.58693 0 7.99998C0 7.99998 2.4 13.6 8 13.6C9.2954 13.6053 10.5715 13.2863 11.712 12.672L14.4 15.2L15.2 14.4L1.6 1.59998ZM8 11.6C7.04522 11.6 6.12955 11.2207 5.45442 10.5456C4.77928 9.87043 4.4 8.95475 4.4 7.99998C4.40442 7.38158 4.56985 6.77499 4.88 6.23998L6.104 7.39198C6.0381 7.58804 6.00302 7.79315 6 7.99998C5.99919 8.32558 6.07821 8.64642 6.23013 8.9344C6.38206 9.22239 6.60227 9.46875 6.87148 9.6519C7.14068 9.83506 7.45068 9.94943 7.77434 9.98501C8.09799 10.0206 8.42544 9.97628 8.728 9.85598L9.96 11.016C9.37745 11.3973 8.69625 11.6003 8 11.6Z" fill="#CBFE03"/>
</svg>
