<svg width="15" height="14" viewBox="0 0 15 14" fill="none" xmlns="http://www.w3.org/2000/svg">
<g clip-path="url(#clip0_12_7441)">
<path d="M5.37744 0.460421C3.97862 0.945683 2.77228 1.86673 1.93561 3.08827C1.09895 4.30981 0.676053 5.76745 0.729046 7.2471C0.782039 8.72675 1.30813 10.1504 2.23004 11.309C3.15195 12.4675 4.42108 13.2999 5.85103 13.6839C7.01032 13.983 8.22492 13.9961 9.39041 13.7221C10.4462 13.485 11.4224 12.9777 12.2232 12.25C13.0567 11.4694 13.6618 10.4764 13.9732 9.37776C14.3118 8.18303 14.372 6.9266 14.1493 5.70495H7.63931V8.40542H11.4095C11.3341 8.83613 11.1727 9.2472 10.9347 9.61405C10.6968 9.9809 10.3873 10.296 10.0248 10.5404C9.5644 10.845 9.04543 11.0499 8.50119 11.142C7.95534 11.2435 7.39547 11.2435 6.84962 11.142C6.29639 11.0276 5.77304 10.7993 5.31291 10.4715C4.57369 9.94825 4.01865 9.20487 3.72697 8.34745C3.43036 7.47398 3.43036 6.52702 3.72697 5.65355C3.93459 5.04128 4.27782 4.48382 4.73103 4.02276C5.24968 3.48546 5.9063 3.10139 6.62886 2.91269C7.35141 2.724 8.11199 2.73797 8.82712 2.95308C9.38578 3.12457 9.89664 3.4242 10.319 3.82808C10.7441 3.40516 11.1685 2.98115 11.5921 2.55605C11.8109 2.32745 12.0493 2.1098 12.2648 1.87573C11.6201 1.27579 10.8633 0.808952 10.0379 0.501983C8.53477 -0.043809 6.89007 -0.0584766 5.37744 0.460421Z" fill="white"/>
<path d="M5.37691 0.460464C6.88942 -0.058786 8.53412 -0.0445045 10.0374 0.500933C10.863 0.809987 11.6194 1.27907 12.2632 1.88125C12.0444 2.11531 11.8136 2.33406 11.5905 2.56156C11.1661 2.9852 10.7421 3.40739 10.3185 3.82812C9.89612 3.42424 9.38525 3.12461 8.8266 2.95312C8.1117 2.73726 7.35115 2.72248 6.6284 2.9104C5.90565 3.09832 5.24863 3.48169 4.72941 4.01843C4.2762 4.47949 3.93297 5.03695 3.72535 5.64921L1.45801 3.89375C2.26958 2.28436 3.67476 1.0533 5.37691 0.460464Z" fill="#E33629"/>
<path d="M0.856325 5.63286C0.978192 5.02889 1.18052 4.44398 1.45789 3.8938L3.72523 5.65364C3.42862 6.52712 3.42862 7.47407 3.72523 8.34755C2.96981 8.93088 2.21403 9.51713 1.45789 10.1063C0.763521 8.72414 0.551751 7.14935 0.856325 5.63286Z" fill="#F8BD00"/>
<path d="M7.63916 5.70386H14.1492C14.3718 6.9255 14.3116 8.18193 13.9731 9.37667C13.6616 10.4753 13.0566 11.4683 12.2231 12.2489C11.4913 11.6779 10.7563 11.1114 10.0246 10.5404C10.3874 10.2957 10.697 9.9803 10.935 9.61306C11.1729 9.24583 11.3342 8.83433 11.4093 8.40323H7.63916C7.63806 7.50417 7.63916 6.60401 7.63916 5.70386Z" fill="#587DBD"/>
<path d="M1.45703 10.1063C2.21318 9.52295 2.96896 8.9367 3.72438 8.34753C4.01663 9.20525 4.57247 9.94867 5.3125 10.4716C5.77407 10.7978 6.29855 11.0243 6.8525 11.1366C7.39834 11.2381 7.95822 11.2381 8.50406 11.1366C9.04831 11.0445 9.56728 10.8396 10.0277 10.535C10.7594 11.106 11.4944 11.6725 12.2261 12.2435C11.4253 12.9716 10.4492 13.4793 9.39328 13.7168C8.22779 13.9907 7.0132 13.9776 5.85391 13.6785C4.93702 13.4337 4.08058 13.0021 3.33828 12.4108C2.5526 11.787 1.91089 11.0009 1.45703 10.1063Z" fill="#319F43"/>
</g>
<defs>
<clipPath id="clip0_12_7441">
<rect width="14" height="14" fill="white" transform="translate(0.5)"/>
</clipPath>
</defs>
</svg>
