<svg width="31" height="31" viewBox="0 0 31 31" fill="none" xmlns="http://www.w3.org/2000/svg">
<path d="M15.5843 11.6408C14.1924 11.6408 13.0649 12.4873 13.0649 13.5303C13.0649 14.5734 14.1924 15.4199 15.5843 15.4199C16.9763 15.4199 18.1037 16.2664 18.1037 17.3094C18.1037 18.3524 16.975 19.1989 15.5843 19.1989M15.5843 11.6408C16.6803 11.6408 17.6149 12.1661 17.9601 12.9005M15.5843 11.6408V10.3811M15.5843 19.1989C14.4884 19.1989 13.5537 18.6736 13.2085 17.9392M15.5843 19.1989V20.4586" stroke="#15215F" stroke-width="1.81684" stroke-linecap="round" stroke-linejoin="round"/>
<path d="M17.4701 3.45271H15.5806C9.93969 3.45271 7.11798 3.45271 5.36575 5.20494C3.61353 6.95717 3.61353 9.77762 3.61353 15.4198C3.61353 21.0607 3.61353 23.8811 5.36575 25.6346C7.11798 27.3856 9.93843 27.3856 15.5806 27.3856C21.2215 27.3856 24.0432 27.3856 25.7954 25.6333C27.5476 23.8811 27.5476 21.0619 27.5476 15.4185V13.529M21.2492 9.74864L26.5096 4.48566M27.5476 9.09109L27.399 5.19739C27.399 4.27907 26.851 3.70717 25.8521 3.63537L21.9168 3.4502" stroke="#15215F" stroke-width="1.81684" stroke-linecap="round" stroke-linejoin="round"/>
</svg>
